<svg width="120" height="100" viewBox="0 0 120 100" fill="none" xmlns="http://www.w3.org/2000/svg">
<g id="dragIndicator" clip-path="url(#clip0_1_4)">
<g id="lightGroup" opacity="0.8">
<path id="light1" d="M28.5 48.2679C29.8333 49.0378 29.8333 50.9622 28.5 51.732L3 66.4545C1.66666 67.2243 -1.62878e-06 66.262 -1.56148e-06 64.7224L-2.74401e-07 35.2776C-2.07103e-07 33.738 1.66667 32.7757 3 33.5455L28.5 48.2679Z" fill="white"/>
</g>
<g id="darkGroup" opacity="0.8">
<path id="dark1" d="M42.5 48.2679C43.8333 49.0378 43.8333 50.9622 42.5 51.732L17 66.4545C15.6667 67.2243 14 66.262 14 64.7224L14 35.2776C14 33.738 15.6667 32.7757 17 33.5455L42.5 48.2679Z" fill="#E2E2E2"/>
<path id="dark2" opacity="0.8" d="M28.5 48.2679C29.8333 49.0378 29.8333 50.9622 28.5 51.732L3 66.4545C1.66666 67.2243 -1.62878e-06 66.262 -1.56148e-06 64.7224L-2.74401e-07 35.2776C-2.07103e-07 33.738 1.66667 32.7757 3 33.5455L28.5 48.2679Z" fill="#E2E2E2"/>
</g>
</g>
<defs>
<clipPath id="clip0_1_4">
<rect width="120" height="100" fill="white"/>
</clipPath>
</defs>
</svg>
